<svg viewBox="0 0 100 100" height="100" width="100" xmlns="http://www.w3.org/2000/svg"><path d="M8.309 58.757 A40.000 40.000 0 1 0 88.309 58.757 A40.000 40.000 0 1 0 8.309 58.757 Z" fill="#d9edff"/><path d="M10.602 87.883 A20.812 1.89 0 1 0 52.226 87.883 A20.812 1.89 0 1 0 10.602 87.883 Z" fill="#4cbcc3"/><path d="M19.365,67.865H13.888a1.1,1.1,0,0,1-1.1-1.095V64.579a1.1,1.1,0,0,1,1.1-1.095h5.477Z" fill="#4cbcc3" stroke="#004481" stroke-linecap="round" stroke-linejoin="round"/><path d="M43.463,67.865H48.94a1.1,1.1,0,0,0,1.095-1.095V64.579a1.1,1.1,0,0,0-1.095-1.095H43.463Z" fill="#4cbcc3" stroke="#004481" stroke-linecap="round" stroke-linejoin="round"/><path d="M45.654,65.674l-3.225-7.256a4.381,4.381,0,0,0-4-2.6H24.4a4.384,4.384,0,0,0-4,2.6l-3.225,7.256-5.784,4.82a2.194,2.194,0,0,0-.788,1.683v6.642a2.19,2.19,0,0,0,2.191,2.19H50.035a2.19,2.19,0,0,0,2.191-2.19V72.177a2.194,2.194,0,0,0-.788-1.683Z" fill="#4cbcc3" stroke="#004481" stroke-linecap="round" stroke-linejoin="round"/><path d="M18.27,87.582H14.984a1.1,1.1,0,0,1-1.1-1.1V81.009h5.477v5.477A1.1,1.1,0,0,1,18.27,87.582Z" fill="#4cbcc3" stroke="#004481" stroke-linecap="round" stroke-linejoin="round"/><path d="M48.94,86.486a1.1,1.1,0,0,1-1.095,1.1H44.559a1.1,1.1,0,0,1-1.1-1.1V81.009H48.94Z" fill="#4cbcc3" stroke="#004481" stroke-linecap="round" stroke-linejoin="round"/><path d="M52.226,79.914a2.191,2.191,0,0,1-2.191,2.191H12.793A2.191,2.191,0,0,1,10.6,79.914V76.628H52.226Z" fill="#ffffff" stroke="#004481" stroke-linecap="round" stroke-linejoin="round"/><path d="M25.937 78.819 L36.891 78.819 L36.891 84.296 L25.937 84.296 Z" fill="#ffffff" stroke="#004481" stroke-linecap="round" stroke-linejoin="round"/><path d="M40.177,76.628H22.651l.681-2.722a2.191,2.191,0,0,1,2.125-1.659H37.371A2.192,2.192,0,0,1,39.5,73.906Z" fill="#ffffff" stroke="#004481" stroke-linecap="round" stroke-linejoin="round"/><path d="M17.174,76.628H10.6V72.247h2.911A3.285,3.285,0,0,1,16.7,74.736Z" fill="#ffffff" stroke="#004481" stroke-linecap="round" stroke-linejoin="round"/><path d="M23.199 74.437L39.629 74.437" fill="none" stroke="#004481" stroke-linecap="round" stroke-linejoin="round"/><path d="M37.4,58.01H25.459A3.432,3.432,0,0,0,22.312,60L20.5,64.063a1.115,1.115,0,0,0,.1,1.092,1.22,1.22,0,0,0,1.006.519H41.251a1.22,1.22,0,0,0,1.006-.519,1.115,1.115,0,0,0,.1-1.092L40.544,60A3.432,3.432,0,0,0,37.4,58.01Z" fill="#ffffff" stroke="#004481" stroke-linecap="round" stroke-linejoin="round"/><path d="M45.654,76.628h6.572V72.247H49.315a3.286,3.286,0,0,0-3.188,2.489Z" fill="#ffffff" stroke="#004481" stroke-linecap="round" stroke-linejoin="round"/><path d="M53.382,73.768a5.221,5.221,0,0,1-5.216-5.215V65.809a1.592,1.592,0,1,1,3.184,0v2.744a2.032,2.032,0,1,0,4.063,0V2.834a1.592,1.592,0,0,1,3.184,0V68.553A5.221,5.221,0,0,1,53.382,73.768Z" fill="#ffffff" stroke="#004481" stroke-linecap="round" stroke-linejoin="round"/><path d="M73.581,54.526c-2.053,0-8.666-8.111-14.984-5.235v2.832h-6.65a1.944,1.944,0,0,0,0,3.888H53.17a1.944,1.944,0,1,0,0,3.888h.972a1.944,1.944,0,1,0,0,3.887h.972a1.944,1.944,0,1,0,0,3.888H62.16c5.008,0,5.885-1.944,8.748-1.944H87.251v-11.2Z" fill="#ffffff" stroke="#004481" stroke-linecap="round" stroke-linejoin="round"/><path d="M56.248 59.899L54.142 59.899" fill="none" stroke="#004481" stroke-linecap="round" stroke-linejoin="round"/><path d="M56.086 56.011L53.17 56.011" fill="none" stroke="#004481" stroke-linecap="round" stroke-linejoin="round"/><path d="M56.248 63.786L55.114 63.786" fill="none" stroke="#004481" stroke-linecap="round" stroke-linejoin="round"/><path d="M62.639 52.123L55.162 52.123" fill="none" stroke="#004481" stroke-linecap="round" stroke-linejoin="round"/><path d="M56.248 59.899L54.142 59.899" fill="none" stroke="#004481" stroke-linecap="round" stroke-linejoin="round"/><path d="M56.086 56.011L53.17 56.011" fill="none" stroke="#004481" stroke-linecap="round" stroke-linejoin="round"/><path d="M56.248 63.786L55.114 63.786" fill="none" stroke="#004481" stroke-linecap="round" stroke-linejoin="round"/><path d="M91.691,51.922l-15.1.252a1,1,0,0,0-1,1v13.5a1,1,0,0,0,1,1l15.1-.252Z" fill="#4cbcc3"/><path d="M91.691,51.922l-15.1.252a1,1,0,0,0-1,1v13.5a1,1,0,0,0,1,1l15.1-.252" fill="none" stroke="#004481" stroke-linecap="round" stroke-linejoin="round"/><path d="M75.587,66.674h-2a1,1,0,0,1-1-1v-11.5a1,1,0,0,1,1-1h2Z" fill="#ffffff" stroke="#004481" stroke-linecap="round" stroke-linejoin="round"/><path d="M25.307,41.544c0-3.367,4.64-6.1,10.363-6.1s10.363,2.729,10.363,6.1c0-3.367,4.912-6.1,10.972-6.1s10.973,2.729,10.973,6.1c0-3.367,4.639-6.1,10.362-6.1S88.7,38.177,88.7,41.544V39.106a31.7,31.7,0,0,0-63.4,0Z" fill="#4cbcc3" stroke="#004481" stroke-linecap="round" stroke-linejoin="round"/><path d="M57.005,7.408S46.033,13.924,46.033,41.544" fill="none" stroke="#004481" stroke-linecap="round" stroke-linejoin="round"/><path d="M57.005,7.408s10.973,6.516,10.973,34.136" fill="none" stroke="#004481" stroke-linecap="round" stroke-linejoin="round"/></svg>